<?xml version="1.0" encoding="UTF-8"?>
<!DOCTYPE svg PUBLIC "-//W3C//DTD SVG 1.1//EN" "http://www.w3.org/Graphics/SVG/1.1/DTD/svg11.dtd">
<!-- Creator: CorelDRAW 2019 (64-Bit) -->
<svg xmlns="http://www.w3.org/2000/svg" xml:space="preserve" width="1010px" height="417px" version="1.1" style="shape-rendering:geometricPrecision; text-rendering:geometricPrecision; image-rendering:optimizeQuality; fill-rule:evenodd; clip-rule:evenodd"
viewBox="0 0 392.16 161.73"
 xmlns:xlink="http://www.w3.org/1999/xlink"
 xmlns:xodm="http://www.corel.com/coreldraw/odm/2003">
 <defs>
  <style type="text/css">
   <![CDATA[
    .fil5 {fill:#DE202A}
    .fil1 {fill:#007BFF}
    .fil3 {fill:#0DCAF0}
    .fil6 {fill:#194F90}
    .fil4 {fill:#28A745}
    .fil0 {fill:#FD7E14}
    .fil2 {fill:#FFC107}
   ]]>
  </style>
 </defs>
 <g id="Layer_x0020_1">
  <metadata id="CorelCorpID_0Corel-Layer"/>
  <path class="fil0" d="M129.89 16.04c5.04,-12.9 19.57,-19.33 32.52,-14.36 12.96,4.97 19.45,19.47 14.56,32.44l0 0 -0.04 0.11 -0.01 0.03 -0.02 0.03 -42.69 111.22 -0.01 0.03c-4.99,13 -19.58,19.5 -32.58,14.51 -13,-4.99 -19.49,-19.58 -14.5,-32.58l0 0 42.77 -111.43 0 0z"/>
  <path class="fil1" d="M44.46 16.04c5.04,-12.9 19.56,-19.33 32.52,-14.36 12.95,4.97 19.44,19.47 14.56,32.44l0 0 -0.05 0.11 -0.01 0.03 -0.01 0.03 -42.69 111.22 -0.02 0.03c-4.99,13 -19.57,19.5 -32.57,14.51 -13.01,-4.99 -19.5,-19.58 -14.51,-32.58l0 0 42.77 -111.43 0.01 0z"/>
  <path class="fil2" d="M300.73 16.04c5.05,-12.9 19.57,-19.33 32.53,-14.36 12.95,4.97 19.44,19.47 14.55,32.44l0 0 -0.04 0.11 -0.01 0.03 -0.01 0.03 -42.7 111.22 -0.01 0.03c-4.99,13 -19.57,19.5 -32.58,14.51 -13,-4.99 -19.49,-19.58 -14.5,-32.58l0 0 42.77 -111.43 0 0z"/>
  <path class="fil3" d="M215.3 16.04c5.04,-12.9 19.57,-19.33 32.52,-14.36 12.95,4.97 19.45,19.47 14.56,32.44l0 0 -0.04 0.11 -0.02 0.03 -0.01 0.03 -42.69 111.22 -0.01 0.03c-4.99,13 -19.58,19.5 -32.58,14.51 -13,-4.99 -19.5,-19.58 -14.51,-32.58l0 0 42.78 -111.43 0 0z"/>
  <path class="fil4" d="M262.27 16.04c-5.04,-12.9 -19.57,-19.33 -32.52,-14.36 -12.95,4.97 -19.45,19.47 -14.56,32.44l0 0 0.04 0.11 0.02 0.03 0.01 0.03 42.69 111.22 0.01 0.03c4.99,13 19.58,19.5 32.58,14.51 13,-4.99 19.5,-19.58 14.51,-32.58l0 0 -42.78 -111.43 0 0z"/>
  <path class="fil5" d="M91.43 16.04c-5.04,-12.9 -19.57,-19.33 -32.52,-14.36 -12.96,4.97 -19.45,19.47 -14.56,32.44l0 0 0.04 0.11 0.01 0.03 0.02 0.03 42.69 111.22 0.01 0.03c4.99,13 19.58,19.5 32.58,14.51 13,-4.99 19.49,-19.58 14.5,-32.58l0 0 -42.77 -111.43 0 0z"/>
  <path class="fil6" d="M347.71 16.04c-5.05,-12.9 -19.57,-19.33 -32.53,-14.36 -12.95,4.97 -19.44,19.47 -14.55,32.44l0 0 0.04 0.11 0.01 0.03 0.01 0.03 42.7 111.22 0.01 0.03c4.99,13 19.57,19.5 32.58,14.51 13,-4.99 19.49,-19.58 14.5,-32.58l0 0 -42.77 -111.43 0 0z"/>
 </g>
</svg>
